<svg width="189" height="79" viewBox="0 0 189 79" fill="none" xmlns="http://www.w3.org/2000/svg">
<mask id="mask0" mask-type="alpha" maskUnits="userSpaceOnUse" x="110" y="0" width="79" height="79">
<circle cx="149.5" cy="39.5" r="39.5" fill="#C4C4C4"/>
</mask>
<g mask="url(#mask0)">
<line x1="111.362" y1="1.22095" x2="111.362" y2="77.7791" stroke="white"/>
<line x1="120.914" y1="1.22095" x2="120.914" y2="77.7791" stroke="white"/>
<line x1="130.465" y1="1.22095" x2="130.465" y2="77.7791" stroke="white"/>
<line x1="140.017" y1="1.22095" x2="140.017" y2="77.7791" stroke="white"/>
<line x1="149.569" y1="1.22095" x2="149.569" y2="77.7791" stroke="white"/>
<line x1="159.121" y1="1.22095" x2="159.121" y2="77.7791" stroke="white"/>
<line x1="168.673" y1="1.22095" x2="168.673" y2="77.7791" stroke="white"/>
<line x1="178.225" y1="1.22095" x2="178.225" y2="77.7791" stroke="white"/>
<line x1="187.776" y1="1.22095" x2="187.776" y2="77.7791" stroke="white"/>
</g>
<mask id="mask1" mask-type="alpha" maskUnits="userSpaceOnUse" x="0" y="0" width="79" height="79">
<circle cx="39.5" cy="39.5" r="39.5" fill="#C4C4C4"/>
</mask>
<g mask="url(#mask1)">
<line x1="1.86182" y1="1.22095" x2="1.86181" y2="77.7791" stroke="white" stroke-width="2" stroke-dasharray="1 20"/>
<line x1="11.4141" y1="1.22095" x2="11.4141" y2="77.7791" stroke="white" stroke-width="2" stroke-dasharray="1 20"/>
<line x1="20.9653" y1="1.22095" x2="20.9653" y2="77.7791" stroke="white" stroke-width="2" stroke-dasharray="1 20"/>
<line x1="30.5171" y1="1.22095" x2="30.5171" y2="77.7791" stroke="white" stroke-width="2" stroke-dasharray="1 20"/>
<line x1="40.0693" y1="1.22095" x2="40.0693" y2="77.7791" stroke="white" stroke-width="2" stroke-dasharray="1 20"/>
<line x1="49.6211" y1="1.22095" x2="49.6211" y2="77.7791" stroke="white" stroke-width="2" stroke-dasharray="1 20"/>
<line x1="59.1729" y1="1.22095" x2="59.1728" y2="77.7791" stroke="white" stroke-width="2" stroke-dasharray="1 20"/>
<line x1="68.7246" y1="1.22095" x2="68.7246" y2="77.7791" stroke="white" stroke-width="2" stroke-dasharray="1 20"/>
<line x1="78.2759" y1="1.22095" x2="78.2759" y2="77.7791" stroke="white" stroke-width="2" stroke-dasharray="1 20"/>
</g>
</svg>
